<svg xmlns="http://www.w3.org/2000/svg" viewBox="0 0 512 512" width="512" height="512">
  <!-- Purple rounded background -->
  <rect width="512" height="512" rx="112" fill="#7C3AED"/>
  <!-- White speech bubble -->
  <path d="M130,120 C130,88 156,62 188,62 L324,62 C356,62 382,88 382,120 L382,260 C382,292 356,318 324,318 L220,318 L160,390 L175,318 L188,318 C156,318 130,292 130,260 Z" fill="white"/>
  <!-- Purple music note (double beamed) -->
  <g fill="#7C3AED">
    <!-- Left note head -->
    <ellipse cx="218" cy="272" rx="28" ry="22" transform="rotate(-20,218,272)"/>
    <!-- Left stem -->
    <rect x="240" y="130" width="10" height="145" rx="5"/>
    <!-- Right note head -->
    <ellipse cx="298" cy="252" rx="28" ry="22" transform="rotate(-20,298,252)"/>
    <!-- Right stem -->
    <rect x="320" y="110" width="10" height="145" rx="5"/>
    <!-- Top beam -->
    <path d="M245,133 L325,113 L325,128 L245,148 Z" rx="3"/>
    <!-- Bottom beam -->
    <path d="M245,158 L325,138 L325,153 L245,173 Z" rx="3"/>
  </g>
</svg>
